<?xml version="1.0" encoding="UTF-8" standalone="no"?>
<svg
   xmlns:dc="http://purl.org/dc/elements/1.1/"
   xmlns:cc="http://creativecommons.org/ns#"
   xmlns:rdf="http://www.w3.org/1999/02/22-rdf-syntax-ns#"
   xmlns:svg="http://www.w3.org/2000/svg"
   xmlns="http://www.w3.org/2000/svg"
   xmlns:sodipodi="http://sodipodi.sourceforge.net/DTD/sodipodi-0.dtd"
   xmlns:inkscape="http://www.inkscape.org/namespaces/inkscape"
   inkscape:version="1.0 (4035a4fb49, 2020-05-01)"
   sodipodi:docname="logo.svg"
   id="svg28"
   preserveAspectRatio="xMidYMid meet"
   viewBox="0 0 225.000000 225.000000"
   height="225.000000pt"
   width="225.000000pt"
   version="1.0">
  <defs
     id="defs32" />
  <sodipodi:namedview
     inkscape:current-layer="svg28"
     inkscape:window-maximized="0"
     inkscape:window-y="474"
     inkscape:window-x="2874"
     inkscape:cy="110.27677"
     inkscape:cx="94.891674"
     inkscape:zoom="54.585422"
     showgrid="false"
     id="namedview30"
     inkscape:window-height="780"
     inkscape:window-width="1194"
     inkscape:pageshadow="2"
     inkscape:pageopacity="0"
     guidetolerance="10"
     gridtolerance="10"
     objecttolerance="10"
     borderopacity="1"
     bordercolor="#666666"
     pagecolor="#ffffff" />
  <metadata
     id="metadata22">
Created by potrace 1.16, written by Peter Selinger 2001-2019
<rdf:RDF>
  <cc:Work
     rdf:about="">
    <dc:format>image/svg+xml</dc:format>
    <dc:type
       rdf:resource="http://purl.org/dc/dcmitype/StillImage" />
  </cc:Work>
</rdf:RDF>
</metadata>
  <g
     id="g26"
     stroke="none"
     fill="#000000"
     transform="translate(0.000000,225.000000) scale(0.100000,-0.100000)">
    <path
       id="path24"
       d="M1536 1783 c-67 -230 -89 -299 -95 -306 -4 -4 -20 10 -34 32 -32 47 -76 83 -143 113 -40 18 -67 22 -144 22 -164 0 -265 -46 -351 -161 -61 -80 -83 -140 -114 -319 -29 -159 -75 -305 -123 -383 l-30 -49 26 -12 c47 -22 194 -70 292 -96 162 -43 349 -44 504 -3 l40 11 -61 29 c-84 40 -118 91 -117 171 2 108 78 179 199 186 73 4 138 -25 173 -78 22 -32 23 -44 20 -122 l-4 -87 29 17 c108 63 168 228 147 399 -16 125 -35 176 -79 216 -39 35 -119 67 -169 67 -13 0 -22 4 -20 9 2 5 48 67 103 136 55 70 101 130 103 135 3 8 -123 90 -138 90 -5 0 -11 -8 -14 -17z" />
  </g>
  <path
     transform="scale(0.75)"
     id="path34"
     d="m 133.48214,220.67201 c -13.9329,-1.18608 -24.75004,-3.68059 -45.900675,-10.585 -10.105814,-3.29894 -20.170751,-7.22906 -20.170751,-7.8762 0,-0.13338 1.063033,-1.97689 2.362296,-4.09668 5.131628,-8.37241 8.622522,-16.87626 12.408865,-30.2281 2.232864,-7.87379 3.35556,-12.97073 6.660301,-30.23722 2.778309,-14.516 5.335405,-22.27269 9.613773,-29.16241 2.303211,-3.709 7.125951,-9.881772 9.980781,-12.774704 7.60893,-7.710501 16.62218,-12.175997 28.0216,-13.882935 4.49647,-0.673297 12.51936,-0.97468 18.65257,-0.700691 6.64705,0.296943 9.55699,0.987653 14.87173,3.529976 7.40714,3.543238 12.42498,7.558987 16.9079,13.531302 2.54369,3.388812 3.77774,4.706242 4.71937,5.038262 0.43104,0.15199 0.67988,-0.12138 1.24718,-1.37006 0.8281,-1.82273 4.09982,-12.344949 8.88323,-28.569438 1.87018,-6.343324 3.61954,-11.867878 3.88746,-12.276786 0.67311,-1.02729 1.40573,-0.938037 4.01946,0.489683 4.99711,2.729617 15.20396,9.685435 15.20396,10.361278 0,0.321707 -6.32278,8.650965 -14.14055,18.62793 -7.38195,9.420783 -12.58127,16.335603 -13.04012,17.342643 -0.4748,1.0421 0.22668,1.41771 3.0943,1.65685 4.68432,0.39066 9.04953,1.61576 13.86718,3.89183 11.75719,5.55461 15.44302,11.9413 18.29892,31.70775 0.87438,6.05185 0.93669,15.66563 0.13502,20.83333 -1.14145,7.358 -3.42894,14.57496 -6.27484,19.79691 -3.82044,7.01014 -8.50518,11.79242 -15.41436,15.73527 l -1.42087,0.81085 0.22411,-2.91854 c 0.12326,-1.60519 0.22694,-6.80247 0.2304,-11.54949 0.006,-8.31612 -0.018,-8.68305 -0.65893,-10.05899 -0.95685,-2.0541 -2.31636,-3.95542 -4.37724,-6.12172 -4.46798,-4.69651 -10.04691,-7.06274 -17.42778,-7.39177 -10.28719,-0.45859 -19.49414,3.08911 -24.69955,9.51745 -3.92589,4.84822 -5.84631,11.92119 -5.08662,18.73418 0.84014,7.53449 3.92825,12.41766 10.61718,16.78876 1.32462,0.86562 4.66036,2.65193 7.41275,3.96958 2.7524,1.31765 4.94987,2.44896 4.88328,2.51401 -0.0666,0.065 -2.5318,0.72132 -5.47823,1.45839 -5.62538,1.40723 -10.31999,2.27332 -16.51786,3.04731 -4.41467,0.55132 -20.86914,0.81951 -25.59524,0.41719 z"
     style="fill:#82ff96;stroke-width:0.297619;fill-opacity:1" />
  <path
     transform="scale(0.75)"
     id="path861"
     d="m 91.255237,125.8025 c 0,-0.10517 0.639616,-2.4036 1.005059,-3.61162 2.142966,-7.08387 4.690649,-12.25035 8.910894,-18.07053 2.57628,-3.55298 4.7523,-6.172146 7.08254,-8.524895 l 0.84512,-0.853287 h 0.14438 0.14438 l -0.67046,0.677845 c -1.88266,1.903407 -3.94909,4.341599 -6.35994,7.504137 -3.584708,4.70238 -5.567581,7.99989 -7.432795,12.36069 -1.202581,2.81159 -2.426897,6.4713 -3.353465,10.02413 -0.13788,0.52868 -0.140271,0.5343 -0.227528,0.5343 -0.05031,0 -0.08819,-0.0175 -0.08819,-0.0408 z"
     style="fill:#0a1e0a;fill-opacity:1;stroke-width:0.0318986" />
  <path
     transform="scale(0.75)"
     id="path863"
     d="m 93.224562,119.2016 c 0,-0.0251 0.310436,-0.88897 0.531066,-1.47779 1.53862,-4.10627 3.371834,-7.6691 5.853735,-11.37666 0.894277,-1.33591 1.692267,-2.4462 2.972407,-4.13572 l 0.64894,-0.85646 h 0.17514 c 0.16504,0 0.17356,0.002 0.14769,0.0321 -0.13183,0.15395 -1.1237,1.44642 -1.7117,2.23045 -1.325,1.76675 -2.546587,3.52047 -3.34339,4.79982 -2.062758,3.31195 -3.607107,6.58851 -5.049179,10.71257 l -0.03043,0.087 h -0.09714 c -0.05343,0 -0.09714,-0.007 -0.09714,-0.0153 z"
     style="fill:#0a1e0a;fill-opacity:1;stroke-width:0.0183199" />
  <path
     transform="scale(0.75)"
     id="path865"
     d="m 93.224562,119.19999 c 0,-0.0657 0.703953,-1.95418 1.038253,-2.78533 1.857976,-4.61935 4.12807,-8.58151 7.565755,-13.20504 0.17783,-0.23917 0.5659,-0.75431 0.86238,-1.14475 l 0.53905,-0.7099 h 0.1749 c 0.13748,0 0.17098,0.005 0.15657,0.0229 -0.12056,0.15063 -0.76497,0.98351 -1.08788,1.40606 -1.07087,1.40127 -2.02303,2.71274 -2.886245,3.97542 -2.48013,3.62784 -4.390307,7.44255 -5.997172,11.97664 l -0.170429,0.48089 h -0.09759 c -0.05367,0 -0.09759,-0.008 -0.09759,-0.0169 z"
     style="fill:#0a1e0a;fill-opacity:1;stroke-width:0.0183199" />
  <path
     transform="scale(0.75)"
     id="path867"
     d="m 93.224562,119.19808 c 0,-0.0291 0.271474,-0.78579 0.525641,-1.46511 1.871964,-5.00323 4.194424,-9.23138 7.688007,-13.99641 0.32083,-0.43759 1.35727,-1.81813 1.64699,-2.19381 l 0.14482,-0.18778 h 0.17489 c 0.13726,0 0.17103,0.005 0.15695,0.0229 -2.08917,2.66703 -3.932753,5.23305 -5.06411,7.04859 -1.980175,3.17767 -3.549018,6.47646 -4.916082,10.33701 l -0.16056,0.45341 h -0.09827 c -0.05499,0 -0.09827,-0.008 -0.09827,-0.0188 z"
     style="fill:#0a1e0a;fill-opacity:1;stroke-width:0.0183199" />
</svg>
